<?xml version="1.0" encoding="utf-8"?>
<!-- Generator: Adobe Illustrator 23.0.0, SVG Export Plug-In . SVG Version: 6.00 Build 0)  -->
<svg version="1.1" id="图层_1" xmlns="http://www.w3.org/2000/svg" xmlns:xlink="http://www.w3.org/1999/xlink" x="0px" y="0px"
	 viewBox="0 0 200 200" style="enable-background:new 0 0 200 200;" xml:space="preserve">
<style type="text/css">
	.st0{fill:#ffffff;}
</style>
<path class="st0" d="M190.8,85.1h-82.2V9c0-4.3-3-8.2-7.3-8.8c-5.3-0.8-9.9,3.4-9.9,8.6v76.3H9.5c-4.6,0-8.6,3.4-8.9,8
	c-0.3,5,3.6,9.1,8.6,9.1h82.3l0,88.8c0,4.6,3.4,8.6,8,8.9c5,0.3,9.1-3.6,9.1-8.6v-89.1h82.3c4.7,0,8.6-3.9,8.6-8.6
	C199.4,88.9,195.5,85.1,190.8,85.1z"/>
</svg>
