<svg id="图层_1" data-name="图层 1" xmlns="http://www.w3.org/2000/svg" viewBox="0 0 200 200"><defs><style>.cls-1{fill:#5d8ade;}</style></defs><title>删除</title><path class="cls-1" d="M193.7,40.1H6.2A5.9,5.9,0,0,1,0,33.9a5.9,5.9,0,0,1,6.2-6.3H193.7a5.9,5.9,0,0,1,6.3,6.3A5.9,5.9,0,0,1,193.7,40.1Z"/><path class="cls-1" d="M130,35.1a5.9,5.9,0,0,1-6.3-6.2V22.6c0-6.2-3.7-10-10-10H86.2c-6.2,0-10,3.8-10,10v6.3A5.9,5.9,0,0,1,70,35.1a5.9,5.9,0,0,1-6.3-6.2V22.6A22.4,22.4,0,0,1,86.2.1h27.5a22.4,22.4,0,0,1,22.5,22.5v6.3A5.9,5.9,0,0,1,130,35.1Z"/><path class="cls-1" d="M142.5,200.1h-85c-12.5,0-22.5-10-22.5-21.2L25,63.9a5.9,5.9,0,0,1,6.2-6.3c2.5-1.2,6.3,1.3,6.3,5l8.7,115c0,5,5,10,10,10h86.3c5,0,10-3.7,10-8.7l10-116.3c0-3.7,3.7-6.2,6.2-6.2s6.3,3.7,6.3,6.2l-8.8,115C166.2,190.1,155,200.1,142.5,200.1Z"/><path class="cls-1" d="M80,200.1a5.9,5.9,0,0,1-6.3-6.2l-5-130a6.3,6.3,0,1,1,12.5,0l5,131.2c0,2.5-2.5,5-6.2,5Z"/><path class="cls-1" d="M120,200.1h0a5.9,5.9,0,0,1-6.3-6.2l5-131.3a6.3,6.3,0,0,1,12.5,0l-5,131.3A5.9,5.9,0,0,1,120,200.1Z"/></svg>