<?xml version="1.0" standalone="no"?><!DOCTYPE svg PUBLIC "-//W3C//DTD SVG 1.1//EN"
  "http://www.w3.org/Graphics/SVG/1.1/DTD/svg11.dtd">
<svg t="1550045062083" class="icon" style="" viewBox="0 0 1088 1024" version="1.1" xmlns="http://www.w3.org/2000/svg"
     p-id="11068" xmlns:xlink="http://www.w3.org/1999/xlink" width="212.5" height="200">
  <defs>
    <style type="text/css"></style>
  </defs>
  <path
    d="M1064.064 979.072a44.736 44.736 0 0 1-44.672 44.736H86.144a44.736 44.736 0 1 1 0-89.472h933.248c24.704 0 44.672 20.032 44.672 44.736zM552.704 852.864a44.736 44.736 0 0 1-44.736-44.736V45.248a44.736 44.736 0 0 1 89.344 0v762.88a44.736 44.736 0 0 1-44.608 44.8z"
    fill="#5D8ADE" p-id="11069"></path>
  <path
    d="M584.32 839.488a44.672 44.672 0 0 1-63.232 0l-335.36-335.744a44.672 44.672 0 1 1 63.168-63.296l335.36 335.744a44.8 44.8 0 0 1 0 63.36z"
    fill="#5D8ADE" p-id="11070"></path>
  <path
    d="M521.088 839.488a44.8 44.8 0 0 1 0-63.296l335.36-335.744a44.8 44.8 0 0 1 63.168 63.296l-335.36 335.744a44.608 44.608 0 0 1-63.168 0z"
    fill="#5D8ADE" p-id="11071"></path>
</svg>
