<svg id="图层_1" data-name="图层 1" xmlns="http://www.w3.org/2000/svg" viewBox="0 0 200 200"><defs><style>.cls-1{fill:#5d8ade;}</style></defs><title>导入 (1)</title><path class="cls-1" d="M198.8,40.7c-37.9-20.6-63.3-3-90,47.5l23.8,15a5.5,5.5,0,0,1,2.5,5.1,6.6,6.6,0,0,1-.6,2,4.5,4.5,0,0,1-2.9,2.3L63.8,140.9a4.9,4.9,0,0,1-5.9-3.7h-.1L46.1,58.6a5.3,5.3,0,0,1,1.7-5.4,4.5,4.5,0,0,1,5.3-.2L77.3,68.3c27.2-51.5,65-85.2,121.5-33.3v5.7Z"/><path class="cls-1" d="M167.3,200H32.7A32.8,32.8,0,0,1,0,167.3V32.7A32.8,32.8,0,0,1,32.7,0H69.3V18.2H32.7A14.5,14.5,0,0,0,18.2,32.7V167.3a14.5,14.5,0,0,0,14.5,14.5H167.3a14.7,14.7,0,0,0,14.6-14.5V67.1H200V167.3A32.8,32.8,0,0,1,167.3,200Z"/></svg>