<?xml version="1.0" encoding="utf-8"?>
<!-- Generator: Adobe Illustrator 23.0.0, SVG Export Plug-In . SVG Version: 6.00 Build 0)  -->
<svg version="1.1" id="图层_1" xmlns="http://www.w3.org/2000/svg" xmlns:xlink="http://www.w3.org/1999/xlink" x="0px" y="0px"
	 viewBox="0 0 200 200" style="enable-background:new 0 0 200 200;" xml:space="preserve">
<style type="text/css">
	.st0{fill:#9197A4;}
</style>
<g>
	<path class="st0" d="M139.1,151.2c-4.5,0-9,3.4-9,9v20.2c0,2.2-2.2,3.4-3.4,3.4H20c-2.2,0-3.4-2.2-3.4-3.4V20.7
		c0-2.2,2.2-3.4,3.4-3.4h106.8c2.2,0,3.4,2.2,3.4,3.4v23.6c0,4.5,3.4,9,9,9c5.6,0,9-3.4,9-9V20.7c0-11.2-9-20.2-20.2-20.2H20
		c-11.2,0-20.2,9-20.2,20.2v158.5c0,11.2,9,20.2,20.2,20.2h106.8c11.2,0,20.2-9,20.2-20.2V159C147,154.5,143.6,151.2,139.1,151.2z"
		/>
	<path class="st0" d="M197.6,96.1L168.4,68c-3.4-3.4-9-3.4-12.4,0c-3.4,3.4-3.4,9,0,12.4l14.6,12.4H84c-4.5,0-7.9,3.4-9,7.9
		c0,4.5,3.4,9,7.9,9h87.7L156,123c-3.4,3.4-3.4,9,0,12.4c1.1,2.2,3.4,2.2,6.7,2.2c2.2,0,4.5-1.1,5.6-2.2l29.2-27
		c2.2-1.1,2.2-3.4,2.2-5.6C201,99.4,199.8,97.2,197.6,96.1L197.6,96.1z"/>
</g>
</svg>
