<svg id="图层_1" data-name="图层 1" xmlns="http://www.w3.org/2000/svg" viewBox="0 0 200 200"><defs><style>.cls-1{fill:#fff;}</style></defs><title>日志管理</title><path class="cls-1" d="M198.18,130.58a5.11,5.11,0,0,0-5-4A11.05,11.05,0,0,1,183.68,110a5.12,5.12,0,0,0-1-6.32A51.64,51.64,0,0,0,173,96.59V44.26a11.53,11.53,0,0,0-11.53-11.53H134.07V14.36H121.25V32.73H51.94V14.36H39.13V32.73H11.74A11.54,11.54,0,0,0,.21,44.26v130.8a11.55,11.55,0,0,0,11.53,11.53h110A51.52,51.52,0,0,0,132,191.11a5.11,5.11,0,0,0,6-2.3,11,11,0,0,1,19.1.06,5.14,5.14,0,0,0,6,2.31,52.09,52.09,0,0,0,19.53-11.24,5.11,5.11,0,0,0,1-6.31,11.06,11.06,0,0,1,9.61-16.54,5.11,5.11,0,0,0,5-4,52.15,52.15,0,0,0,.05-22.52Zm-159-85v18H51.94v-18h69.31v18h12.82v-18h26.1v27H13v-27ZM13,85.37H160.17v7a5.14,5.14,0,0,0-2.91,2.31,11,11,0,0,1-19.12,0,5.12,5.12,0,0,0-5.95-2.33,52,52,0,0,0-19.53,11.23,5.13,5.13,0,0,0-1,6.32,11.05,11.05,0,0,1-9.61,16.53,5.14,5.14,0,0,0-5,4,52.26,52.26,0,0,0,0,22.51,5.14,5.14,0,0,0,5,4A11,11,0,0,1,113,168a11.18,11.18,0,0,1-1.47,5.47c-.06.1-.11.2-.16.3H13Zm175.73,61.94a21.28,21.28,0,0,0-16.46,25.21,20.36,20.36,0,0,0,.57,2.17,41.54,41.54,0,0,1-9.52,5.48,21.29,21.29,0,0,0-30.06-1.67,18.93,18.93,0,0,0-1.62,1.61,42.54,42.54,0,0,1-9.37-5.43v-.51a21.27,21.27,0,0,0-14.09-26.58c-.6-.18-1.2-.34-1.81-.47a42.48,42.48,0,0,1,0-11,21.29,21.29,0,0,0,15.89-27.39,42.16,42.16,0,0,1,9.53-5.47A21.3,21.3,0,0,0,161.91,105a22.09,22.09,0,0,0,1.61-1.6,42.08,42.08,0,0,1,9.49,5.52,21.29,21.29,0,0,0,13.59,26.87,20.86,20.86,0,0,0,2.19.6,42,42,0,0,1,0,11Z"/><path class="cls-1" d="M151.78,123.36A18.66,18.66,0,1,0,170.44,142h0A18.69,18.69,0,0,0,151.78,123.36Zm0,27a8.3,8.3,0,1,1,8.29-8.29h0A8.31,8.31,0,0,1,151.78,150.33Z"/></svg>