<svg id="图层_1" data-name="图层 1" xmlns="http://www.w3.org/2000/svg" viewBox="0 0 200 200"><defs><style>.cls-1{fill:#fff;}</style></defs><title>用户管理</title><path class="cls-1" d="M188.5,134.2a35.3,35.3,0,0,0-5.2-11.3l5.8-9.7-5.2-5.2-10,6.1a32.2,32.2,0,0,0-10.6-4.2l-2.9-11.6h-7.3l-2.9,11.6a33,33,0,0,0-10.5,4.2L129.6,108l-5.2,5.2,5.9,9.8a32.1,32.1,0,0,0-5.3,11.2l-10.3,2.6v7.3l9.6,2.4a33,33,0,0,0,4.9,13.2l-4.8,7.9,5.2,5.2,7.6-4.6a31.4,31.4,0,0,0,13.9,6.2l2,8.1h7.3l2-8.1a33.6,33.6,0,0,0,13.9-6.2l7.6,4.6,5.2-5.2-4.8-8a31.5,31.5,0,0,0,4.9-13.1l9.6-2.4v-7.3l-10.3-2.6Zm-31.7,26.1A18.3,18.3,0,1,1,175,142,18.3,18.3,0,0,1,156.8,160.3Z"/><path class="cls-1" d="M116.3,112.7a5.6,5.6,0,0,1-5.8,9.6,66.4,66.4,0,0,0-15.6-6.8,5.6,5.6,0,0,1-.8-10.4,41.2,41.2,0,1,0-35.6-.1,5.6,5.6,0,0,1-.9,10.4c-27,8-45.7,32.2-45.7,59.9a5.6,5.6,0,0,1-11.2,0c0-28.9,17.2-54.5,42.9-66.5a52.3,52.3,0,1,1,65.4.1,72.4,72.4,0,0,1,7.3,3.8Z"/></svg>