<?xml version="1.0" encoding="utf-8"?>
<!-- Generator: Adobe Illustrator 23.0.0, SVG Export Plug-In . SVG Version: 6.00 Build 0)  -->
<svg version="1.1" id="图层_1" xmlns="http://www.w3.org/2000/svg" xmlns:xlink="http://www.w3.org/1999/xlink" x="0px" y="0px"
	 viewBox="0 0 200 200" style="enable-background:new 0 0 200 200;" xml:space="preserve">
<style type="text/css">
	.st0{fill:#FFFFFF;}
</style>
<path class="st0" d="M194.3,175.2H19.9c-3.4,0-6.2-2.6-6.2-5.7V31.5c0-3.2-2.8-5.7-6.2-5.7s-6.2,2.6-6.2,5.7v143.7
	c0,6.3,5.6,11.5,12.4,11.5h180.6c3.4,0,6.2-2.6,6.2-5.7S197.7,175.2,194.3,175.2L194.3,175.2z M32.3,129.2h12.4
	c2.1,0.1,4.3-0.9,5.5-2.7l13.2-19.6l18.9,39.2c0.8,1.7,2.4,2.8,4.2,3.2c3.2,0.8,6.6-0.9,7.6-3.9l25.5-77.2l18.6,56.3
	c0.6,2.6,3.1,4.6,6.1,4.6h31.1c0.5,0,1.1-0.1,1.6-0.2c2.1,3.5,6.2,5.9,10.9,5.9c6.9,0,12.4-5.1,12.4-11.5s-5.6-11.5-12.4-11.5
	c-4.7,0-8.8,2.4-10.9,5.9c-0.5-0.1-1-0.2-1.6-0.2H149l-23.4-70.6c-1-3-4.5-4.7-7.8-3.8c-1.1,0.3-2.1,0.9-2.8,1.7
	c-0.6,0.6-1.1,1.3-1.3,2.2L87,127.6L70.2,92.7c-0.3-0.7-0.7-1.4-1.3-2c0,0-0.1-0.1-0.1-0.1c0,0-0.1-0.1-0.1-0.1
	c-1.8-1.6-4.5-2.1-6.8-1.1c-1.3,0.6-2.4,1.5-3,2.6l-17.3,25.6h-9.1c-3.4,0-6.2,2.6-6.2,5.7C26.1,126.6,28.9,129.2,32.3,129.2
	L32.3,129.2z"/>
</svg>
