<?xml version="1.0" encoding="utf-8"?>
<!-- Generator: Adobe Illustrator 23.0.0, SVG Export Plug-In . SVG Version: 6.00 Build 0)  -->
<svg version="1.1" id="图层_1" xmlns="http://www.w3.org/2000/svg" xmlns:xlink="http://www.w3.org/1999/xlink" x="0px" y="0px"
	 viewBox="0 0 200 200" style="enable-background:new 0 0 200 200;" xml:space="preserve">
<style type="text/css">
	.st0{fill:#FFFFFF;}
</style>
<path class="st0" d="M86.1,138.7H16.3c-1.6,0-2.9-1.3-2.9-2.9V22.2c0-1.6,1.3-2.9,2.9-2.9h167.3c1.6,0,2.9,1.3,2.9,2.9v24.9
	c4.9,0.6,9.5,2.2,13.4,4.8V22.2c0-9-7.3-16.3-16.3-16.3H16.3C7.3,5.9,0,13.2,0,22.2v113.5c0,9,7.3,16.3,16.3,16.3h56.1V174h-8.8
	c-5.5,0-10,4.5-10,10c0,5.6,4.5,10,10,10h28.2c-3.5-5-5.7-11-5.7-17.5L86.1,138.7L86.1,138.7z"/>
<path class="st0" d="M142.4,184v-14.5h-29.4V77.1c0-2,1.6-3.5,3.5-3.5h66.6c1.9,0,3.5,1.6,3.5,3.5v28.6h5c3.1,0,5.9,0.9,8.4,2.3
	V77.1c0-9.3-7.6-16.9-16.9-16.9h-66.6c-9.3,0-16.9,7.6-16.9,16.9v99.5c0,9.3,7.6,16.9,16.9,16.9h28.9
	C143.5,190.9,142.4,187.2,142.4,184L142.4,184z"/>
<path class="st0" d="M191.6,114h-32.5c-4.6,0-8.4,3.8-8.4,8.4V184c0,4.6,3.8,8.4,8.4,8.4h32.5c4.6,0,8.4-3.8,8.4-8.4v-61.5
	C200,117.8,196.2,114,191.6,114z M160.8,124.1H190v53.2h-29.2V124.1z M175.4,188.3c-0.9,0-1.7-0.4-2.4-0.9c-0.7-0.6-1.2-1.6-1.2-2.6
	c0-2,1.6-3.5,3.5-3.5c1.9,0,3.5,1.6,3.5,3.5c0,1-0.5,1.9-1.2,2.6C177.1,187.9,176.3,188.3,175.4,188.3z"/>
</svg>
