<svg id="图层_1" data-name="图层 1" xmlns="http://www.w3.org/2000/svg" viewBox="0 0 200 200"><defs><style>.cls-1{fill:#9197a4;}</style></defs><title>修改个人信息</title><path class="cls-1" d="M156.1,67.9a64,64,0,0,0-128,0,62.2,62.2,0,0,0,32.7,55.5,86.1,86.1,0,0,0-53.4,64,7.2,7.2,0,0,0,5.6,8.5h1.5a6.8,6.8,0,0,0,7.1-5.6,72.3,72.3,0,0,1,69.7-58.4h1.4a64.5,64.5,0,0,0,63.4-64Zm-113.8,0a49.8,49.8,0,0,1,99.6,0,50.3,50.3,0,0,1-49.1,49.8H90.6A50.6,50.6,0,0,1,42.3,67.9Zm98.9,64a6.6,6.6,0,0,0,6.3,7.1h36.3a7.1,7.1,0,0,0,0-14.2H148.2a7,7,0,0,0-7,7.1Zm42.6,20.6H126.9a7.2,7.2,0,0,0,0,14.3h56.9a7.2,7.2,0,1,0,0-14.3Zm0,28.5H127.6a7.1,7.1,0,0,0,0,14.2h56.2a6.7,6.7,0,0,0,7.1-6.3v-.8a7.1,7.1,0,0,0-7.1-7.1Z"/></svg>