<?xml version="1.0" encoding="utf-8"?>
<!-- Generator: Adobe Illustrator 23.0.0, SVG Export Plug-In . SVG Version: 6.00 Build 0)  -->
<svg version="1.1" id="图层_1" xmlns="http://www.w3.org/2000/svg" xmlns:xlink="http://www.w3.org/1999/xlink" x="0px" y="0px"
	 viewBox="0 0 200 200" style="enable-background:new 0 0 200 200;" xml:space="preserve">
<style type="text/css">
	.st0{fill:#9197A4;}
</style>
<path class="st0" d="M173.1,85.4c-4-4-9.3-6.4-15.2-6.4h-1.5V55.8c0-15.4-6.3-29.6-16.6-39.8C129.5,5.8,115.4-0.5,99.9-0.5
	c-15.1,0-29.1,6.2-39.2,16.1L60.1,16C49.9,26.2,43.6,40.4,43.6,55.8V79H42c-5.9,0-11.2,2.4-15.1,6.4l0,0v0.1
	c-3.9,3.9-6.3,9.2-6.3,15.1l0,78.6c0,5.9,2.4,11.3,6.3,15.2c3.9,4,9.2,6.3,15.1,6.3h115.9c5.5,0,10.7-2.1,14.6-5.7l0.6-0.6
	c3.8-3.8,6.3-9.3,6.3-15.2l0-78.6C179.4,94.6,176.9,89.4,173.1,85.4L173.1,85.4z M61.3,55.8L61.3,55.8c0-10.6,4.5-20.3,11.4-27.2
	l0.4-0.4c6.9-6.7,16.5-11,26.8-11c10.7,0,20.3,4.4,27.3,11.4c6.9,6.9,11.3,16.6,11.3,27.2V79H61.3V55.8L61.3,55.8z M161.6,179.1
	L161.6,179.1c0,1-0.4,2-1.1,2.6l-0.3,0.3c-0.7,0.5-1.5,0.8-2.4,0.8H42c-0.9,0-1.9-0.3-2.5-1c-0.8-0.7-1.1-1.6-1.1-2.6v-78.6
	c0-1.1,0.4-2,1.1-2.6c0.6-0.6,1.6-1.1,2.5-1.1h115.9c1,0,2,0.5,2.6,1.1c0.6,0.8,1.1,1.6,1.1,2.6L161.6,179.1L161.6,179.1z
	 M99.9,110.6L99.9,110.6c-5.8,0-11.2,2.3-15.1,6.2c-3.9,3.8-6.3,9.2-6.3,15.1c0,6,2.4,11.3,6.3,15.1c2.7,2.7,6.1,4.7,9.8,5.6v11
	c0,2.9,2.4,5.3,5.3,5.3c3,0,5.4-2.4,5.4-5.3v-11c3.8-0.9,7.1-2.9,9.9-5.6c3.8-3.8,6.3-9.1,6.3-15.1c0-5.9-2.5-11.3-6.3-15.1
	C111.2,113,105.9,110.6,99.9,110.6L99.9,110.6z M107.6,139.6L107.6,139.6c-2,1.9-4.5,3.1-7.4,3.2h-0.2h-0.3
	c-2.8-0.1-5.4-1.3-7.3-3.2c-2-1.9-3.1-4.7-3.1-7.6c0-3,1.2-5.7,3.1-7.6c1.9-1.9,4.7-3.2,7.6-3.2c3,0,5.7,1.3,7.7,3.2
	c1.9,2,3.1,4.7,3.1,7.6C110.8,135,109.5,137.7,107.6,139.6L107.6,139.6z"/>
</svg>
