<?xml version="1.0" encoding="utf-8"?>
<!-- Generator: Adobe Illustrator 23.0.0, SVG Export Plug-In . SVG Version: 6.00 Build 0)  -->
<svg version="1.1" id="图层_1" xmlns="http://www.w3.org/2000/svg" xmlns:xlink="http://www.w3.org/1999/xlink" x="0px"
     y="0px"
     viewBox="0 0 200 200" style="enable-background:new 0 0 200 200;" xml:space="preserve">
<path d="M172.6,85.5c-3.9-3.9-9.3-6.3-15.1-6.3H156v-23c0-15.3-6.3-29.4-16.5-39.5C129.3,6.5,115.3,0.2,99.9,0.2
	c-15,0-28.9,6.1-38.9,16l-0.6,0.4C50.3,26.8,44,40.8,44,56.2v23h-1.6c-5.9,0-11.1,2.4-15,6.3l0,0v0.1c-3.9,3.9-6.2,9.1-6.2,14.9
	l0,78c0,5.9,2.4,11.3,6.2,15.1c3.9,3.9,9.1,6.2,15,6.2h115.1c5.5,0,10.6-2.1,14.5-5.7l0.6-0.6c3.8-3.8,6.3-9.2,6.3-15.1l0-78
	C178.8,94.7,176.3,89.4,172.6,85.5L172.6,85.5z M61.6,56.2L61.6,56.2c0-10.5,4.4-20.1,11.3-27l0.4-0.4c6.9-6.7,16.4-10.9,26.6-10.9
	c10.6,0,20.1,4.3,27.1,11.3c6.9,6.9,11.2,16.5,11.2,27v23H61.6V56.2L61.6,56.2z M161.1,178.5L161.1,178.5c0,1-0.4,1.9-1.1,2.6
	l-0.3,0.3c-0.7,0.5-1.5,0.8-2.4,0.8H42.4c-0.9,0-1.9-0.3-2.5-1c-0.8-0.7-1.1-1.6-1.1-2.6v-78c0-1.1,0.4-1.9,1.1-2.6
	c0.6-0.6,1.6-1.1,2.5-1.1h115.1c1,0,1.9,0.5,2.6,1.1c0.6,0.8,1.1,1.6,1.1,2.6L161.1,178.5L161.1,178.5z M99.9,110.6L99.9,110.6
	c-5.8,0-11.1,2.3-15,6.2c-3.9,3.8-6.2,9.1-6.2,15c0,5.9,2.4,11.2,6.2,15c2.6,2.7,6,4.6,9.8,5.6v10.9c0,2.9,2.4,5.3,5.3,5.3
	c3,0,5.3-2.4,5.3-5.3v-10.9c3.8-0.9,7.1-2.9,9.8-5.6c3.8-3.8,6.3-9.1,6.3-15c0-5.9-2.5-11.2-6.3-15
	C111.1,112.9,105.8,110.6,99.9,110.6L99.9,110.6z M107.6,139.3L107.6,139.3c-1.9,1.9-4.5,3.1-7.4,3.1h-0.2h-0.3
	c-2.7-0.1-5.4-1.2-7.2-3.1c-1.9-1.9-3.1-4.6-3.1-7.6c0-2.9,1.2-5.6,3.1-7.6c1.9-1.9,4.6-3.1,7.5-3.1c3,0,5.6,1.3,7.6,3.1
	c1.9,1.9,3.1,4.6,3.1,7.6C110.7,134.7,109.4,137.5,107.6,139.3L107.6,139.3z" fill="#A4B0C7"/>
</svg>
