<?xml version="1.0" standalone="no"?><!DOCTYPE svg PUBLIC "-//W3C//DTD SVG 1.1//EN" "http://www.w3.org/Graphics/SVG/1.1/DTD/svg11.dtd"><svg t="1568190698427" class="icon" viewBox="0 0 1024 1024" version="1.1" xmlns="http://www.w3.org/2000/svg" p-id="2100" xmlns:xlink="http://www.w3.org/1999/xlink" width="96" height="96"><defs><style type="text/css"></style></defs><path d="M688.565345 653.900847c0 0-11.672854 15.440667-27.297716 30.575366l179.917696 176.300308 29.860075-27.91784L688.565345 653.900847 688.565345 653.900847zM752.457514 462.786135c0 175.017082-134.816498 306.400389-301.919331 306.400389C276.296767 766.655887 149.950174 629.448946 149.950174 463.021495c0-160.758334 135.995347-296.318776 300.588009-296.318776C617.641015 166.70272 752.457514 304.025295 752.457514 462.786135L752.457514 462.786135zM449.439152 206.867488c-143.231145 0-259.32421 116.181069-259.32421 261.075087 0 144.898111 116.093065 261.882476 259.32421 261.882476 143.250588 0 262.8495-116.984365 262.8495-261.882476C712.288652 323.048557 592.68974 206.867488 449.439152 206.867488L449.439152 206.867488zM449.439152 206.867488" p-id="2101" fill="#ffffff"></path></svg>