<?xml version="1.0" encoding="utf-8"?>
<!-- Generator: Adobe Illustrator 23.0.0, SVG Export Plug-In . SVG Version: 6.00 Build 0)  -->
<svg version="1.1" id="图层_1" xmlns="http://www.w3.org/2000/svg" xmlns:xlink="http://www.w3.org/1999/xlink" x="0px" y="0px"
	 viewBox="0 0 200 200" style="enable-background:new 0 0 200 200;" xml:space="preserve">
<path d="M171.2,162.5c4,9.2,6.1,18.9,6.1,28.9c0,4.4-3.7,8-8.3,8c-4.6,0-8.3-3.6-8.3-8c0-15.5-6.3-30.1-17.7-41.1
	c-11.5-11-26.9-17.1-42.9-17c-16-0.1-31.3,6-42.9,17c-11.4,11-17.7,25.6-17.7,41.1c0,4.4-3.7,8-8.3,8c-4.6,0-8.3-3.6-8.3-8
	c0-10,2-19.7,6.1-28.9c3.9-8.8,9.5-16.8,16.6-23.6c7.1-6.8,15.4-12.2,24.6-15.9c3.1-1.3,6.3-2.3,9.6-3.2c-9.2-3-17.6-8-24.6-14.7
	C42.8,93.6,36.2,78.2,36.2,61.8s6.6-31.7,18.7-43.3C67,6.9,83.2,0.5,100,0.6c17,0,33.1,6.4,45.1,17.9c12.1,11.6,18.7,26.9,18.7,43.3
	s-6.7,31.7-18.7,43.3c-7,6.7-15.4,11.7-24.6,14.7c3.2,0.9,6.5,1.9,9.6,3.2c9.1,3.7,17.5,9.1,24.6,15.9
	C161.6,145.6,167.3,153.6,171.2,162.5L171.2,162.5z M52.8,61.9c0,24.9,21.1,45.2,47.1,45.2c26,0,47.1-20.3,47.1-45.2
	c0-25-21.2-45.2-47.1-45.2S52.8,36.9,52.8,61.9z" fill="#A4B0C7"/>
</svg>
