<?xml version="1.0" encoding="utf-8"?>
<!-- Generator: Adobe Illustrator 15.0.0, SVG Export Plug-In . SVG Version: 6.00 Build 0)  -->
<!DOCTYPE svg PUBLIC "-//W3C//DTD SVG 1.1//EN" "http://www.w3.org/Graphics/SVG/1.1/DTD/svg11.dtd">
<svg version="1.1" id="图层_1" xmlns="http://www.w3.org/2000/svg" xmlns:xlink="http://www.w3.org/1999/xlink" x="0px" y="0px"
	 width="32px" height="32px" viewBox="0 0 32 32" enable-background="new 0 0 32 32" xml:space="preserve">
<path d="M26.191,18.696c-1.284,0.015-2.176,0.631-2.742,1.33c-0.56-0.708-1.45-1.33-2.766-1.33c-0.869,0-1.592,0.28-2.147,0.837
	c-1.014,1.02-1.033,2.553-1.024,2.601c-0.024,0.155-0.549,3.839,5.607,6.907c0.104,0.053,0.219,0.079,0.332,0.079
	c0.12,0,0.239-0.03,0.349-0.09c3.723-1.975,5.658-4.367,5.598-6.974C29.399,20.708,28.557,18.696,26.191,18.696z M23.44,27.533
	c-4.734-2.483-4.47-5.062-4.446-5.281c-0.002-0.274,0.105-1.17,0.601-1.667c0.269-0.269,0.624-0.4,1.09-0.4
	c1.578,0,1.983,1.44,2.021,1.6c0.078,0.33,0.369,0.563,0.709,0.571c0.326-0.036,0.643-0.218,0.734-0.543
	c0.02-0.065,0.475-1.611,2.083-1.628c1.663,0,1.68,1.796,1.682,1.96C27.953,23.999,26.371,25.904,23.44,27.533z M23.447,10.438
	c0-4.515-3.674-8.19-8.189-8.19c-4.517,0-8.191,3.673-8.191,8.19c0,3.188,1.835,5.95,4.5,7.303
	c-4.911,1.574-8.968,6.034-8.968,10.565c0,0.411,0.333,0.746,0.744,0.746s0.745-0.336,0.745-0.746c0-4.795,5.636-9.679,11.168-9.679
	C19.771,18.627,23.447,14.954,23.447,10.438z M15.257,17.138c-3.696,0-6.702-3.007-6.702-6.701c0-3.695,3.007-6.702,6.702-6.702
	c3.695,0,6.701,3.006,6.701,6.702S18.952,17.138,15.257,17.138z"/>
</svg>
