<?xml version="1.0" standalone="no"?><!DOCTYPE svg PUBLIC "-//W3C//DTD SVG 1.1//EN" "http://www.w3.org/Graphics/SVG/1.1/DTD/svg11.dtd"><svg t="1582987513500" class="icon" viewBox="0 0 1024 1024" version="1.1" xmlns="http://www.w3.org/2000/svg" p-id="2682" xmlns:xlink="http://www.w3.org/1999/xlink" width="32" height="32"><defs><style type="text/css"></style></defs><path d="M349.911862 198.312381c53.722394 0 105.295893 22.716898 141.520136 62.420306 5.321075 5.730389 12.791046 9.107225 20.568002 9.107225s15.246927-3.274508 20.568002-9.107225c36.224243-39.703408 87.90007-62.420306 141.520136-62.420306 105.705206 0 191.763366 86.058159 191.763366 191.763366 0 37.963825-6.753672 75.825322-20.158689 112.458879-5.321075 14.4283 2.148896 30.493854 16.679524 35.712601 14.4283 5.321075 30.493854-2.148896 35.712602-16.679524 15.553912-42.773259 23.535525-86.979115 23.535525-131.491956 0-136.506046-111.026282-247.532327-247.532328-247.532327-59.65744 0-117.370641 21.795943-162.088138 60.476066-44.717498-38.782452-102.430699-60.476067-162.088138-60.476066-136.506046 0-247.532327 111.026282-247.532328 247.429999 0 314.864395 381.889477 482.17128 398.159689 489.129609 3.581493 1.534926 7.265314 2.251224 10.949135 2.251224 10.846807 0 21.079644-6.344359 25.684421-16.884181 6.037374-14.121315-0.511642-30.596183-14.632957-36.633557-3.683821-1.534926-364.391326-159.427601-364.391326-437.965424 0-105.602878 86.058159-191.558709 191.763366-191.558709z" p-id="2683"></path><path d="M893.787149 701.767962h-96.08634v-96.086339c0-15.349256-12.484061-27.833317-27.833316-27.833317s-27.833317 12.484061-27.833317 27.833317v96.086339h-96.086339c-15.349256 0-27.833317 12.484061-27.833317 27.833317s12.484061 27.833317 27.833317 27.833317H741.931848v96.086339c0 15.349256 12.484061 27.833317 27.833316 27.833317s27.833317-12.484061 27.833317-27.833317v-96.086339h96.08634c15.349256 0 27.833317-12.484061 27.833316-27.833317s-12.381733-27.833317-27.730988-27.833317z" p-id="2684"></path></svg>