<?xml version="1.0" standalone="no"?><!DOCTYPE svg PUBLIC "-//W3C//DTD SVG 1.1//EN" "http://www.w3.org/Graphics/SVG/1.1/DTD/svg11.dtd"><svg t="1582971178584" class="icon" viewBox="0 0 1024 1024" version="1.1" xmlns="http://www.w3.org/2000/svg" p-id="3119" xmlns:xlink="http://www.w3.org/1999/xlink" width="32" height="32"><defs><style type="text/css"></style></defs><path d="M990.8 550.8c-2.3-24.5-24-43.3-66.1-57-2.1-49.5-12.9-97.5-32.1-143-20.8-49.2-50.6-93.4-88.6-131.4s-82.2-67.8-131.4-88.6c-51-21.6-105.1-32.5-160.9-32.5-55.8 0-109.9 10.9-160.9 32.5-49.2 20.8-93.4 50.6-131.4 88.6-38 38-67.8 82.2-88.6 131.4-21.6 51-32.5 105.1-32.5 160.9 0 18.2 1.2 36.3 3.5 54.1-18.5 9.2-33.3 18.6-43.8 28.1-16.1 14.5-23.5 30-22 46.1 3 32.2 39.8 54.8 112.2 68.5 19 35 42.8 67 71.3 95.5 38 38 82.2 67.8 131.4 88.6 51 21.6 105.1 32.5 160.9 32.5 55.8 0 109.9-10.9 160.9-32.5C721.9 871.8 766.1 842 804 804s67.8-82.2 88.6-131.4c5.5-12.9 10.2-26 14.3-39.3 59.2-25.3 86.7-52.5 83.9-82.5zM511.7 148.4c200.4 0 363.4 163 363.4 363.4 0 33.2-4.5 65.5-12.9 96.1-7.6 2.7-15.9 5.5-24.8 8.3-83.4 26.4-195.8 47.1-316.6 58.4-120.8 11.3-235.2 11.7-322 1.3-4.1-0.5-8.1-1-12-1.5-24.6-48.9-38.4-104.1-38.4-162.5 0-200.5 163-363.5 363.3-363.5z m-436 487.9c-0.3-3.1 5.9-14.1 33.6-29.3 4.5 18.9 10.3 37.4 17.4 55.6-39.8-10.9-50.6-22.6-51-26.3z m436 238.8c-124 0-233.7-62.5-299.3-157.6 38.7 3.9 81.9 5.8 128.2 5.8 57.6 0 119.9-3 183.9-9 121.7-11.4 235.4-32.2 320.9-58.8C789.6 784.6 661 875.1 511.7 875.1zM919 582.9c2.7-15.4 4.5-30.9 5.4-46.6 20.5 8.3 26.4 15.7 26.6 18.3 0.3 3.1-6 13.7-32 28.3z" p-id="3120" fill="#bfbfbf"></path><path d="M254.6 470.1c1.6 0.4 3.2 0.6 4.7 0.6 9 0 17.2-6.1 19.4-15.3 3.6-15 8.8-29.6 15.3-43.6 4.7-10 0.3-21.9-9.7-26.6-10-4.7-21.9-0.3-26.6 9.7-7.6 16.3-13.6 33.5-17.9 51-2.5 10.7 4 21.5 14.8 24.2zM304.1 355.3c3.8 3.4 8.6 5.1 13.3 5.1 5.5 0 11-2.2 14.9-6.7 44.9-50.2 109.3-78.9 176.5-78.9 11 0 20-9 20-20s-9-20-20-20c-40.1 0-78.7 8.4-114.9 24.9-34.9 16-65.7 38.6-91.4 67.4-7.3 8.2-6.6 20.8 1.6 28.2z" p-id="3121" fill="#bfbfbf"></path></svg>